<svg xmlns="http://www.w3.org/2000/svg" viewBox="0 0 1200 630" width="1200" height="630" role="img">
<defs>
<linearGradient id="og" x1="0" y1="0" x2="1" y2="1">
<stop offset="0%" stop-color="#12063a"/>
<stop offset="50%" stop-color="#0b1030"/>
<stop offset="100%" stop-color="#05060d"/>
</linearGradient>
<linearGradient id="gold" x1="0" y1="0" x2="1" y2="0">
<stop offset="0%" stop-color="#f5c542"/>
<stop offset="100%" stop-color="#ff9f6e"/>
</linearGradient>
<filter id="b" x="-40%" y="-40%" width="180%" height="180%"><feGaussianBlur stdDeviation="34"/></filter>
</defs>
<rect width="1200" height="630" fill="url(#og)"/>
<circle cx="0.9" cy="611.1" r="2.3" fill="#ffffff" opacity="0.47"/><circle cx="578.2" cy="582.9" r="1.2" fill="#ffffff" opacity="0.49"/><circle cx="979.2" cy="35.9" r="2.6" fill="#ffffff" opacity="0.23"/><circle cx="741.4" cy="92.0" r="2.5" fill="#ffffff" opacity="0.20"/><circle cx="89.5" cy="441.3" r="2.6" fill="#ffffff" opacity="0.14"/><circle cx="1189.5" cy="312.7" r="1.9" fill="#ffffff" opacity="0.43"/><circle cx="1.4" cy="598.8" r="1.4" fill="#ffffff" opacity="0.35"/><circle cx="1027.1" cy="509.3" r="2.4" fill="#ffffff" opacity="0.28"/><circle cx="1059.9" cy="201.1" r="2.8" fill="#ffffff" opacity="0.53"/><circle cx="684.1" cy="525.0" r="1.0" fill="#ffffff" opacity="0.22"/><circle cx="576.6" cy="259.6" r="2.3" fill="#ffffff" opacity="0.38"/><circle cx="345.8" cy="387.1" r="1.7" fill="#ffffff" opacity="0.35"/><circle cx="979.9" cy="449.5" r="2.3" fill="#ffffff" opacity="0.34"/><circle cx="765.0" cy="10.4" r="2.1" fill="#ffffff" opacity="0.18"/><circle cx="327.7" cy="432.6" r="2.2" fill="#ffffff" opacity="0.36"/><circle cx="388.1" cy="574.3" r="2.8" fill="#ffffff" opacity="0.12"/><circle cx="941.3" cy="599.7" r="1.1" fill="#ffffff" opacity="0.23"/><circle cx="295.9" cy="448.0" r="1.8" fill="#ffffff" opacity="0.58"/><circle cx="257.3" cy="99.2" r="1.1" fill="#ffffff" opacity="0.23"/><circle cx="755.0" cy="351.3" r="1.3" fill="#ffffff" opacity="0.14"/><circle cx="397.6" cy="257.2" r="1.6" fill="#ffffff" opacity="0.42"/><circle cx="12.6" cy="181.7" r="2.8" fill="#ffffff" opacity="0.11"/><circle cx="1140.8" cy="541.8" r="1.1" fill="#ffffff" opacity="0.54"/><circle cx="1130.9" cy="446.0" r="2.3" fill="#ffffff" opacity="0.59"/><circle cx="599.2" cy="363.8" r="1.7" fill="#ffffff" opacity="0.50"/><circle cx="1073.6" cy="365.7" r="0.9" fill="#ffffff" opacity="0.21"/><circle cx="1186.2" cy="13.0" r="0.6" fill="#ffffff" opacity="0.10"/><circle cx="761.9" cy="227.9" r="2.7" fill="#ffffff" opacity="0.15"/><circle cx="560.6" cy="36.0" r="2.5" fill="#ffffff" opacity="0.41"/><circle cx="646.6" cy="227.0" r="0.7" fill="#ffffff" opacity="0.53"/><circle cx="336.1" cy="622.1" r="1.2" fill="#ffffff" opacity="0.45"/><circle cx="534.9" cy="374.0" r="1.4" fill="#ffffff" opacity="0.52"/><circle cx="553.8" cy="564.5" r="2.2" fill="#ffffff" opacity="0.27"/><circle cx="816.6" cy="1.6" r="0.8" fill="#ffffff" opacity="0.24"/><circle cx="571.7" cy="268.1" r="1.6" fill="#ffffff" opacity="0.57"/><circle cx="839.9" cy="593.6" r="1.9" fill="#ffffff" opacity="0.34"/><circle cx="576.9" cy="124.6" r="2.6" fill="#ffffff" opacity="0.30"/><circle cx="1132.2" cy="286.5" r="1.1" fill="#ffffff" opacity="0.33"/><circle cx="562.6" cy="112.1" r="0.7" fill="#ffffff" opacity="0.23"/><circle cx="637.0" cy="166.4" r="1.9" fill="#ffffff" opacity="0.14"/><circle cx="664.3" cy="223.8" r="1.5" fill="#ffffff" opacity="0.35"/><circle cx="698.6" cy="32.9" r="2.4" fill="#ffffff" opacity="0.56"/><circle cx="265.6" cy="213.2" r="2.7" fill="#ffffff" opacity="0.40"/><circle cx="465.4" cy="478.8" r="1.6" fill="#ffffff" opacity="0.22"/><circle cx="33.9" cy="185.8" r="1.2" fill="#ffffff" opacity="0.32"/><circle cx="968.0" cy="100.4" r="2.0" fill="#ffffff" opacity="0.49"/><circle cx="359.7" cy="370.2" r="2.5" fill="#ffffff" opacity="0.46"/><circle cx="913.7" cy="213.1" r="2.5" fill="#ffffff" opacity="0.12"/><circle cx="763.0" cy="250.8" r="2.3" fill="#ffffff" opacity="0.13"/><circle cx="689.3" cy="364.9" r="2.8" fill="#ffffff" opacity="0.12"/><circle cx="836.7" cy="567.5" r="2.4" fill="#ffffff" opacity="0.53"/><circle cx="558.6" cy="206.5" r="2.6" fill="#ffffff" opacity="0.51"/><circle cx="495.0" cy="426.3" r="1.7" fill="#ffffff" opacity="0.48"/><circle cx="52.2" cy="256.4" r="0.8" fill="#ffffff" opacity="0.16"/><circle cx="1038.7" cy="185.7" r="1.7" fill="#ffffff" opacity="0.47"/><circle cx="754.6" cy="487.5" r="1.0" fill="#ffffff" opacity="0.57"/><circle cx="1105.7" cy="311.1" r="2.3" fill="#ffffff" opacity="0.13"/><circle cx="191.4" cy="260.6" r="2.3" fill="#ffffff" opacity="0.60"/><circle cx="599.2" cy="420.0" r="2.8" fill="#ffffff" opacity="0.12"/><circle cx="736.1" cy="370.5" r="2.2" fill="#ffffff" opacity="0.52"/><circle cx="260.2" cy="9.5" r="1.8" fill="#ffffff" opacity="0.30"/><circle cx="275.3" cy="156.4" r="2.6" fill="#ffffff" opacity="0.59"/><circle cx="449.3" cy="55.4" r="0.7" fill="#ffffff" opacity="0.14"/><circle cx="450.0" cy="118.1" r="0.7" fill="#ffffff" opacity="0.11"/><circle cx="128.4" cy="586.6" r="2.1" fill="#ffffff" opacity="0.16"/><circle cx="614.1" cy="259.8" r="1.9" fill="#ffffff" opacity="0.32"/><circle cx="629.3" cy="183.4" r="1.6" fill="#ffffff" opacity="0.32"/><circle cx="451.8" cy="241.2" r="2.0" fill="#ffffff" opacity="0.21"/><circle cx="572.0" cy="314.1" r="2.8" fill="#ffffff" opacity="0.52"/><circle cx="833.7" cy="209.0" r="1.6" fill="#ffffff" opacity="0.44"/><circle cx="781.2" cy="18.8" r="1.6" fill="#ffffff" opacity="0.34"/><circle cx="250.7" cy="374.9" r="1.5" fill="#ffffff" opacity="0.22"/><circle cx="830.3" cy="60.6" r="1.4" fill="#ffffff" opacity="0.28"/><circle cx="1082.7" cy="253.5" r="1.2" fill="#ffffff" opacity="0.22"/><circle cx="1159.6" cy="478.4" r="1.3" fill="#ffffff" opacity="0.26"/><circle cx="429.7" cy="326.1" r="2.6" fill="#ffffff" opacity="0.42"/><circle cx="163.3" cy="275.8" r="2.0" fill="#ffffff" opacity="0.10"/><circle cx="821.9" cy="432.7" r="1.5" fill="#ffffff" opacity="0.54"/><circle cx="487.1" cy="319.4" r="2.8" fill="#ffffff" opacity="0.59"/><circle cx="20.5" cy="449.6" r="1.0" fill="#ffffff" opacity="0.24"/><circle cx="8.6" cy="423.4" r="1.1" fill="#ffffff" opacity="0.48"/><circle cx="378.3" cy="61.7" r="1.2" fill="#ffffff" opacity="0.36"/><circle cx="174.7" cy="130.5" r="1.8" fill="#ffffff" opacity="0.45"/><circle cx="917.5" cy="418.8" r="1.3" fill="#ffffff" opacity="0.25"/><circle cx="498.8" cy="76.8" r="2.0" fill="#ffffff" opacity="0.15"/><circle cx="158.8" cy="338.7" r="2.3" fill="#ffffff" opacity="0.25"/><circle cx="707.8" cy="612.7" r="2.6" fill="#ffffff" opacity="0.38"/><circle cx="314.4" cy="566.7" r="0.7" fill="#ffffff" opacity="0.19"/><circle cx="680.2" cy="71.3" r="2.3" fill="#ffffff" opacity="0.44"/><circle cx="1174.7" cy="181.1" r="1.3" fill="#ffffff" opacity="0.39"/><circle cx="552.9" cy="227.1" r="2.7" fill="#ffffff" opacity="0.36"/><circle cx="838.1" cy="330.2" r="1.2" fill="#ffffff" opacity="0.24"/><circle cx="543.3" cy="505.1" r="0.9" fill="#ffffff" opacity="0.34"/><circle cx="427.5" cy="6.1" r="2.0" fill="#ffffff" opacity="0.27"/><circle cx="494.6" cy="462.5" r="0.6" fill="#ffffff" opacity="0.30"/><circle cx="275.4" cy="193.3" r="1.6" fill="#ffffff" opacity="0.40"/><circle cx="692.7" cy="243.9" r="0.8" fill="#ffffff" opacity="0.24"/><circle cx="1008.5" cy="126.3" r="1.2" fill="#ffffff" opacity="0.57"/><circle cx="857.7" cy="363.6" r="1.1" fill="#ffffff" opacity="0.19"/><circle cx="100.0" cy="318.8" r="1.6" fill="#ffffff" opacity="0.42"/><circle cx="126.0" cy="28.0" r="2.7" fill="#ffffff" opacity="0.37"/><circle cx="21.8" cy="319.0" r="1.1" fill="#ffffff" opacity="0.52"/><circle cx="522.3" cy="142.0" r="2.5" fill="#ffffff" opacity="0.32"/><circle cx="488.8" cy="381.2" r="0.8" fill="#ffffff" opacity="0.12"/><circle cx="513.3" cy="368.5" r="2.5" fill="#ffffff" opacity="0.11"/><circle cx="725.8" cy="302.5" r="1.9" fill="#ffffff" opacity="0.26"/><circle cx="756.7" cy="427.4" r="0.6" fill="#ffffff" opacity="0.53"/><circle cx="363.6" cy="363.9" r="2.8" fill="#ffffff" opacity="0.17"/><circle cx="276.3" cy="508.0" r="1.4" fill="#ffffff" opacity="0.18"/><circle cx="1096.2" cy="422.9" r="1.4" fill="#ffffff" opacity="0.38"/>
<ellipse cx="960" cy="180" rx="240" ry="200" fill="#8b5cf6" opacity=".3" filter="url(#b)"/>
<ellipse cx="220" cy="520" rx="220" ry="180" fill="#f5c542" opacity=".18" filter="url(#b)"/>
<line x1="960.0" y1="170.0" x2="1101.3" y2="170.0" stroke="#c084fc" stroke-width="1.3" stroke-linecap="round" opacity="0.51"/><circle cx="1101.3" cy="170.0" r="2.4" fill="#c084fc" opacity="0.58"/><line x1="960.0" y1="170.0" x2="1065.0" y2="208.7" stroke="#c084fc" stroke-width="1.5" stroke-linecap="round" opacity="0.37"/><circle cx="1065.0" cy="208.7" r="3.0" fill="#c084fc" opacity="0.40"/><line x1="960.0" y1="170.0" x2="1060.6" y2="252.7" stroke="#c084fc" stroke-width="2.4" stroke-linecap="round" opacity="0.44"/><circle cx="1060.6" cy="252.7" r="1.5" fill="#c084fc" opacity="0.34"/><line x1="960.0" y1="170.0" x2="1053.7" y2="295.4" stroke="#c084fc" stroke-width="1.2" stroke-linecap="round" opacity="0.38"/><circle cx="1053.7" cy="295.4" r="1.6" fill="#c084fc" opacity="0.37"/><line x1="960.0" y1="170.0" x2="1009.4" y2="283.7" stroke="#c084fc" stroke-width="1.4" stroke-linecap="round" opacity="0.68"/><circle cx="1009.4" cy="283.7" r="4.0" fill="#c084fc" opacity="0.49"/><line x1="960.0" y1="170.0" x2="963.6" y2="281.9" stroke="#c084fc" stroke-width="1.5" stroke-linecap="round" opacity="0.54"/><circle cx="963.6" cy="281.9" r="3.6" fill="#c084fc" opacity="0.72"/><line x1="960.0" y1="170.0" x2="937.2" y2="274.8" stroke="#c084fc" stroke-width="2.8" stroke-linecap="round" opacity="0.45"/><circle cx="937.2" cy="274.8" r="3.9" fill="#c084fc" opacity="0.66"/><line x1="960.0" y1="170.0" x2="909.0" y2="261.5" stroke="#c084fc" stroke-width="2.7" stroke-linecap="round" opacity="0.69"/><circle cx="909.0" cy="261.5" r="2.9" fill="#c084fc" opacity="0.58"/><line x1="960.0" y1="170.0" x2="879.8" y2="256.7" stroke="#c084fc" stroke-width="1.6" stroke-linecap="round" opacity="0.62"/><circle cx="879.8" cy="256.7" r="3.6" fill="#c084fc" opacity="0.43"/><line x1="960.0" y1="170.0" x2="813.8" y2="256.4" stroke="#c084fc" stroke-width="2.7" stroke-linecap="round" opacity="0.64"/><circle cx="813.8" cy="256.4" r="3.8" fill="#c084fc" opacity="0.63"/><line x1="960.0" y1="170.0" x2="856.1" y2="189.2" stroke="#c084fc" stroke-width="1.6" stroke-linecap="round" opacity="0.67"/><circle cx="856.1" cy="189.2" r="3.6" fill="#c084fc" opacity="0.72"/><line x1="960.0" y1="170.0" x2="852.0" y2="167.5" stroke="#c084fc" stroke-width="1.9" stroke-linecap="round" opacity="0.69"/><circle cx="852.0" cy="167.5" r="1.4" fill="#c084fc" opacity="0.57"/><line x1="960.0" y1="170.0" x2="801.1" y2="116.5" stroke="#c084fc" stroke-width="1.8" stroke-linecap="round" opacity="0.54"/><circle cx="801.1" cy="116.5" r="2.2" fill="#c084fc" opacity="0.57"/><line x1="960.0" y1="170.0" x2="861.4" y2="104.3" stroke="#c084fc" stroke-width="2.9" stroke-linecap="round" opacity="0.51"/><circle cx="861.4" cy="104.3" r="1.9" fill="#c084fc" opacity="0.42"/><line x1="960.0" y1="170.0" x2="873.9" y2="60.0" stroke="#c084fc" stroke-width="2.7" stroke-linecap="round" opacity="0.61"/><circle cx="873.9" cy="60.0" r="4.0" fill="#c084fc" opacity="0.60"/><line x1="960.0" y1="170.0" x2="911.7" y2="30.1" stroke="#c084fc" stroke-width="1.6" stroke-linecap="round" opacity="0.34"/><circle cx="911.7" cy="30.1" r="1.6" fill="#c084fc" opacity="0.37"/><line x1="960.0" y1="170.0" x2="956.8" y2="61.4" stroke="#c084fc" stroke-width="1.6" stroke-linecap="round" opacity="0.74"/><circle cx="956.8" cy="61.4" r="2.6" fill="#c084fc" opacity="0.58"/><line x1="960.0" y1="170.0" x2="981.8" y2="60.6" stroke="#c084fc" stroke-width="2.7" stroke-linecap="round" opacity="0.68"/><circle cx="981.8" cy="60.6" r="3.0" fill="#c084fc" opacity="0.48"/><line x1="960.0" y1="170.0" x2="1037.6" y2="20.2" stroke="#c084fc" stroke-width="2.0" stroke-linecap="round" opacity="0.74"/><circle cx="1037.6" cy="20.2" r="3.1" fill="#c084fc" opacity="0.61"/><line x1="960.0" y1="170.0" x2="1036.2" y2="92.0" stroke="#c084fc" stroke-width="2.9" stroke-linecap="round" opacity="0.53"/><circle cx="1036.2" cy="92.0" r="2.9" fill="#c084fc" opacity="0.55"/><line x1="960.0" y1="170.0" x2="1063.4" y2="105.1" stroke="#c084fc" stroke-width="1.3" stroke-linecap="round" opacity="0.74"/><circle cx="1063.4" cy="105.1" r="2.2" fill="#c084fc" opacity="0.53"/><line x1="960.0" y1="170.0" x2="1116.5" y2="129.2" stroke="#c084fc" stroke-width="1.5" stroke-linecap="round" opacity="0.66"/><circle cx="1116.5" cy="129.2" r="3.1" fill="#c084fc" opacity="0.67"/>
<line x1="210.0" y1="500.0" x2="333.8" y2="500.0" stroke="#f5c542" stroke-width="2.7" stroke-linecap="round" opacity="0.59"/><circle cx="333.8" cy="500.0" r="3.8" fill="#f5c542" opacity="0.54"/><line x1="210.0" y1="500.0" x2="328.8" y2="553.4" stroke="#f5c542" stroke-width="2.7" stroke-linecap="round" opacity="0.27"/><circle cx="328.8" cy="553.4" r="4.0" fill="#f5c542" opacity="0.51"/><line x1="210.0" y1="500.0" x2="286.5" y2="577.9" stroke="#f5c542" stroke-width="2.5" stroke-linecap="round" opacity="0.56"/><circle cx="286.5" cy="577.9" r="3.3" fill="#f5c542" opacity="0.28"/><line x1="210.0" y1="500.0" x2="262.3" y2="621.9" stroke="#f5c542" stroke-width="2.0" stroke-linecap="round" opacity="0.57"/><circle cx="262.3" cy="621.9" r="3.1" fill="#f5c542" opacity="0.27"/><line x1="210.0" y1="500.0" x2="232.9" y2="629.6" stroke="#f5c542" stroke-width="1.6" stroke-linecap="round" opacity="0.41"/><circle cx="232.9" cy="629.6" r="2.5" fill="#f5c542" opacity="0.28"/><line x1="210.0" y1="500.0" x2="173.4" y2="629.8" stroke="#f5c542" stroke-width="1.9" stroke-linecap="round" opacity="0.45"/><circle cx="173.4" cy="629.8" r="2.9" fill="#f5c542" opacity="0.34"/><line x1="210.0" y1="500.0" x2="141.6" y2="611.4" stroke="#f5c542" stroke-width="2.8" stroke-linecap="round" opacity="0.50"/><circle cx="141.6" cy="611.4" r="1.9" fill="#f5c542" opacity="0.52"/><line x1="210.0" y1="500.0" x2="107.8" y2="577.8" stroke="#f5c542" stroke-width="2.0" stroke-linecap="round" opacity="0.58"/><circle cx="107.8" cy="577.8" r="1.9" fill="#f5c542" opacity="0.42"/><line x1="210.0" y1="500.0" x2="93.2" y2="534.1" stroke="#f5c542" stroke-width="2.9" stroke-linecap="round" opacity="0.29"/><circle cx="93.2" cy="534.1" r="1.6" fill="#f5c542" opacity="0.45"/><line x1="210.0" y1="500.0" x2="117.1" y2="492.5" stroke="#f5c542" stroke-width="1.8" stroke-linecap="round" opacity="0.47"/><circle cx="117.1" cy="492.5" r="3.5" fill="#f5c542" opacity="0.52"/><line x1="210.0" y1="500.0" x2="105.7" y2="450.9" stroke="#f5c542" stroke-width="2.5" stroke-linecap="round" opacity="0.27"/><circle cx="105.7" cy="450.9" r="3.5" fill="#f5c542" opacity="0.39"/><line x1="210.0" y1="500.0" x2="141.4" y2="435.7" stroke="#f5c542" stroke-width="1.8" stroke-linecap="round" opacity="0.58"/><circle cx="141.4" cy="435.7" r="2.7" fill="#f5c542" opacity="0.60"/><line x1="210.0" y1="500.0" x2="151.9" y2="380.1" stroke="#f5c542" stroke-width="2.8" stroke-linecap="round" opacity="0.22"/><circle cx="151.9" cy="380.1" r="2.0" fill="#f5c542" opacity="0.47"/><line x1="210.0" y1="500.0" x2="204.4" y2="415.5" stroke="#f5c542" stroke-width="2.6" stroke-linecap="round" opacity="0.46"/><circle cx="204.4" cy="415.5" r="1.9" fill="#f5c542" opacity="0.58"/><line x1="210.0" y1="500.0" x2="229.6" y2="407.7" stroke="#f5c542" stroke-width="2.2" stroke-linecap="round" opacity="0.38"/><circle cx="229.6" cy="407.7" r="4.0" fill="#f5c542" opacity="0.44"/><line x1="210.0" y1="500.0" x2="280.0" y2="379.9" stroke="#f5c542" stroke-width="2.2" stroke-linecap="round" opacity="0.47"/><circle cx="280.0" cy="379.9" r="3.2" fill="#f5c542" opacity="0.60"/><line x1="210.0" y1="500.0" x2="318.3" y2="416.7" stroke="#f5c542" stroke-width="2.1" stroke-linecap="round" opacity="0.37"/><circle cx="318.3" cy="416.7" r="4.0" fill="#f5c542" opacity="0.27"/><line x1="210.0" y1="500.0" x2="308.4" y2="473.7" stroke="#f5c542" stroke-width="3.0" stroke-linecap="round" opacity="0.38"/><circle cx="308.4" cy="473.7" r="2.5" fill="#f5c542" opacity="0.39"/>
<text x="80" y="300" font-family="Verdana,Geneva,sans-serif" font-size="82" font-weight="bold" fill="url(#gold)">SparkZone</text>
<text x="80" y="386" font-family="Verdana,Geneva,sans-serif" font-size="62" font-weight="bold" fill="#ffffff">Fireworks</text>
<text x="84" y="446" font-family="Verdana,Geneva,sans-serif" font-size="26" fill="#a9b2d0">Premium festive collection · Demo storefront</text>
<rect x="84" y="486" width="440" height="52" rx="26" fill="#ffffff" opacity=".08"/>
<text x="108" y="520" font-family="Verdana,Geneva,sans-serif" font-size="22" fill="#f5c542">18+ only · Follow local regulations</text>
</svg>
